<?xml version="1.0" standalone="no"?>
<!DOCTYPE svg PUBLIC "-//W3C//DTD SVG 20010904//EN"
 "http://www.w3.org/TR/2001/REC-SVG-20010904/DTD/svg10.dtd">
<svg version="1.0" xmlns="http://www.w3.org/2000/svg"
 width="474.000000pt" height="474.000000pt" viewBox="0 0 474.000000 474.000000"
 preserveAspectRatio="xMidYMid meet">

<g transform="translate(0.000000,474.000000) scale(0.100000,-0.100000)"
fill="#000000" stroke="none">
<path d="M0 2370 l0 -2370 2370 0 2370 0 0 2370 0 2370 -2370 0 -2370 0 0
-2370z m1944 1808 c4 -24 5 -63 3 -88 l-4 -45 -111 -3 -112 -3 0 -314 0 -315
-105 0 -105 0 -2 313 -3 312 -112 3 -113 3 0 89 0 90 329 0 330 0 5 -42z m696
-48 l0 -90 -190 0 -190 0 0 -42 c0 -24 -3 -53 -6 -65 l-6 -23 191 0 191 0 0
-90 0 -90 -187 0 -188 0 0 -70 0 -70 193 0 192 0 0 -90 0 -90 -300 0 -300 0 0
405 0 405 300 0 300 0 0 -90z m707 65 c39 -18 61 -36 84 -72 28 -44 30 -54 27
-120 -4 -81 -20 -112 -81 -152 l-37 -25 27 -11 c16 -7 43 -28 60 -48 94 -107
56 -281 -73 -338 -35 -16 -73 -18 -300 -19 -142 0 -267 0 -276 0 -17 0 -18 26
-18 405 l0 405 268 0 c262 0 268 -1 319 -25z m-1447 -1387 c245 -244 453 -449
463 -457 17 -13 44 11 338 305 175 175 319 322 319 327 0 4 -144 6 -320 5
l-320 -3 0 133 0 132 550 0 550 0 0 -577 0 -578 -550 -550 -551 -551 -549 550
-550 550 0 578 0 578 88 0 88 0 444 -442z m990 -1968 c22 0 80 -46 80 -63 0
-7 -9 -18 -21 -25 -18 -12 -24 -11 -43 7 -54 50 -136 8 -136 -70 0 -89 69
-136 131 -90 23 17 33 19 49 11 25 -14 25 -25 0 -50 -66 -66 -180 -47 -227 36
-36 61 -29 141 16 194 26 31 95 63 119 55 8 -3 22 -5 32 -5z m-1406 -22 c-1
-10 -2 -22 -3 -28 0 -6 -32 -10 -72 -10 l-70 0 3 -32 c3 -32 4 -33 53 -35 28
-1 58 -2 68 -2 14 -1 18 -8 15 -28 -3 -28 -4 -28 -70 -27 l-68 1 0 -39 0 -39
66 2 c54 2 68 -1 76 -15 21 -38 4 -46 -102 -46 l-100 0 0 160 0 161 103 -3
c90 -3 102 -5 101 -20z m236 4 c41 -20 80 -89 80 -141 0 -49 -34 -113 -72
-136 -23 -13 -58 -20 -115 -23 l-83 -5 0 162 0 161 78 0 c53 0 88 -5 112 -18z
m192 -99 c3 -114 4 -118 29 -132 34 -19 73 -8 87 24 7 14 12 71 12 125 l0 100
30 0 30 0 0 -115 c0 -130 -11 -165 -60 -190 -37 -19 -103 -19 -139 0 -47 24
-61 69 -61 194 l0 111 35 0 34 0 3 -117z m310 51 l3 -66 47 66 c45 63 50 66
88 66 l41 0 -56 -71 c-33 -40 -54 -76 -51 -84 7 -20 100 -144 107 -145 4 0 30
67 59 150 l52 150 42 0 41 0 53 -153 c28 -83 52 -155 52 -159 0 -5 -14 -8 -31
-8 -25 0 -33 6 -42 30 -11 29 -14 30 -75 30 -61 0 -63 -1 -73 -29 -10 -28 -12
-29 -79 -30 l-70 -1 -44 66 c-41 61 -45 64 -55 46 -6 -12 -11 -41 -11 -66 0
-44 -1 -46 -30 -46 l-30 0 0 160 0 160 30 0 c29 0 29 0 32 -66z m948 -49 c0
-171 -26 -214 -124 -202 -51 7 -63 19 -48 51 10 22 14 24 41 13 53 -20 61 -2
61 134 l0 119 35 0 35 0 0 -115z m200 112 c0 -1 25 -71 55 -156 30 -85 55
-156 55 -158 0 -1 -15 -3 -34 -3 -29 0 -36 5 -45 30 -10 29 -12 30 -73 30 -61
0 -64 -1 -75 -29 -9 -25 -16 -30 -42 -29 -17 1 -31 3 -31 6 0 4 77 223 101
290 7 18 16 22 49 22 22 0 40 -1 40 -3z"/>
<path d="M2977 4043 c-4 -3 -7 -35 -7 -70 l0 -63 119 0 c95 0 123 3 135 16 38
37 27 96 -20 114 -29 11 -217 14 -227 3z"/>
<path d="M2972 3658 l3 -73 116 -3 c105 -2 118 -1 142 18 21 17 27 30 27 60 0
61 -21 70 -168 70 l-123 0 3 -72z"/>
<path d="M1540 2497 l0 -302 418 -417 418 -417 422 422 422 422 0 300 0 300
-418 -418 c-229 -229 -421 -417 -425 -417 -5 0 -195 187 -423 415 l-414 415 0
-303z"/>
<path d="M1597 773 c-12 -11 -8 -171 4 -178 6 -4 27 -7 47 -7 51 0 82 37 82
98 0 60 -32 94 -88 94 -21 0 -42 -3 -45 -7z"/>
<path d="M2535 719 c-10 -30 -20 -60 -23 -66 -3 -9 9 -13 42 -13 25 0 46 1 46
3 0 1 -11 31 -24 66 l-23 64 -18 -54z"/>
<path d="M3304 705 l-22 -65 44 0 c24 0 44 4 44 8 0 13 -32 106 -39 114 -3 4
-16 -22 -27 -57z"/>
</g>
</svg>
